<?xml version="1.0" encoding="utf-8"?>
<svg version="1.1" xmlns="http://www.w3.org/2000/svg" xmlns:xlink="http://www.w3.org/1999/xlink" x="0px"
	 y="0px" viewBox="0 0 43.5 30.9" enable-background="new 0 0 43.5 30.9" xml:space="preserve">
<g>
	<path fill="#6a6d66" d="M42.5,1C31.3,5.5,29.3,7.7,30.1,14.6c1.1-0.2,2.1-0.5,3.2-0.7c5.3-1,9.7,2,10.2,6.9c0.6,5.2-2.9,9.6-8.1,10
		c-5.6,0.5-10.3-3.2-11.8-9.3C21,11.7,30.1,0,40.3,0C40.9,0,41.5,0.5,42.5,1z"/>
	<path fill="#6B6B6B" d="M19.1,0.9c-6.4,2.6-12.7,4.9-12.6,14c1.8-0.4,2.8-0.7,3.9-0.9c4.9-0.9,9,1.7,9.8,6.2
		c1,5.2-2.1,9.9-7.2,10.7C8.2,31.6,3.5,29,1.4,24.2c-2.5-5.7-1.5-11.1,1.9-16.1C7.1,2.5,12.9-0.2,19.1,0.9z"/>
</g>
</svg>